<?xml version="1.0" encoding="UTF-8" standalone="no"?>
<!-- Created with Inkscape (http://www.inkscape.org/) -->

<svg
   xmlns:dc="http://purl.org/dc/elements/1.1/"
   xmlns:cc="http://creativecommons.org/ns#"
   xmlns:rdf="http://www.w3.org/1999/02/22-rdf-syntax-ns#"
   xmlns:svg="http://www.w3.org/2000/svg"
   xmlns="http://www.w3.org/2000/svg"
   xmlns:sodipodi="http://sodipodi.sourceforge.net/DTD/sodipodi-0.dtd"
   xmlns:inkscape="http://www.inkscape.org/namespaces/inkscape"
   version="1.1"
   width="225"
   height="225"
   id="svg2"
   xml:space="preserve"
   inkscape:version="0.48.4 r9939"
   sodipodi:docname="epanstwo1.svg"><sodipodi:namedview
     pagecolor="#ffffff"
     bordercolor="#666666"
     borderopacity="1"
     objecttolerance="10"
     gridtolerance="10"
     guidetolerance="10"
     inkscape:pageopacity="0"
     inkscape:pageshadow="2"
     inkscape:window-width="640"
     inkscape:window-height="480"
     id="namedview72"
     showgrid="false"
     inkscape:zoom="0.49615954"
     inkscape:cx="288.4667"
     inkscape:cy="94.325749"
     inkscape:window-x="0"
     inkscape:window-y="0"
     inkscape:window-maximized="0"
     inkscape:current-layer="svg2" /><metadata
     id="metadata8"><rdf:RDF><cc:Work
         rdf:about=""><dc:format>image/svg+xml</dc:format><dc:type
           rdf:resource="http://purl.org/dc/dcmitype/StillImage" /><dc:title></dc:title></cc:Work></rdf:RDF></metadata><defs
     id="defs6"><clipPath
       id="clipPath76"><path
         d="m 0,151.741 461.142,0 L 461.142,0 0,0 0,151.741 z"
         id="path78"
         inkscape:connector-curvature="0" /></clipPath></defs><path
     inkscape:connector-curvature="0"
     style="fill:#008dd3;fill-opacity:1;fill-rule:nonzero;stroke:none"
     id="path12"
     d="m 72.157224,77.782583 -33.04599,0 0,-33.044919 33.04599,0 0,33.044919 z" /><g
     id="g14"
     transform="matrix(1.077329,0,0,-1.077329,68.870402,33.308388)"><path
       inkscape:connector-curvature="0"
       style="fill:#004768;fill-opacity:1;fill-rule:nonzero;stroke:none"
       id="path16"
       d="m 0,0 -1.423,-1.422 0,-30.674 30.672,0 1.425,1.424 L 0,0 z" /></g><path
     inkscape:connector-curvature="0"
     style="fill:#00699e;fill-opacity:1;fill-rule:nonzero;stroke:none"
     id="path18"
     d="m 68.870294,66.352111 33.045996,0 0,-33.043831 -33.045996,0 0,33.043831 z" /><path
     inkscape:connector-curvature="0"
     style="fill:#008dd3;fill-opacity:1;fill-rule:nonzero;stroke:none"
     id="path20"
     d="m 142.55528,77.782583 -33.0449,0 0,-33.044919 33.0449,0 0,33.044919 z" /><path
     inkscape:connector-curvature="0"
     style="fill:#00a0e4;fill-opacity:1;fill-rule:nonzero;stroke:none"
     id="path22"
     d="m 107.35572,112.98107 -33.043836,0 0,-33.04491 33.043836,0 0,33.04491 z" /><path
     inkscape:connector-curvature="0"
     style="fill:#0085c5;fill-opacity:1;fill-rule:nonzero;stroke:none"
     id="path24"
     d="m 142.55528,112.98107 -33.0449,0 0,-33.04491 33.0449,0 0,33.04491 z" /><path
     inkscape:connector-curvature="0"
     style="fill:#008dd3;fill-opacity:1;fill-rule:nonzero;stroke:none"
     id="path26"
     d="m 177.75488,112.98107 -33.04493,0 0,-33.04491 33.04493,0 0,33.04491 z" /><path
     inkscape:connector-curvature="0"
     style="fill:#00a0e4;fill-opacity:1;fill-rule:nonzero;stroke:none"
     id="path28"
     d="m 72.157224,148.18172 -33.04599,0 0,-33.04492 33.04599,0 0,33.04492 z" /><path
     inkscape:connector-curvature="0"
     style="fill:#008dd3;fill-opacity:1;fill-rule:nonzero;stroke:none"
     id="path30"
     d="m 107.35572,148.18172 -33.043836,0 0,-33.04492 33.043836,0 0,33.04492 z" /><path
     inkscape:connector-curvature="0"
     style="fill:#00699e;fill-opacity:1;fill-rule:nonzero;stroke:none"
     id="path32"
     d="m 177.75488,148.18172 -33.04493,0 0,-33.04492 33.04493,0 0,33.04492 z" /><path
     inkscape:connector-curvature="0"
     style="fill:#00699e;fill-opacity:1;fill-rule:nonzero;stroke:none"
     id="path34"
     d="m 72.157224,183.3813 -33.04599,0 0,-33.04491 33.04599,0 0,33.04491 z" /><g
     id="g36"
     transform="matrix(1.077329,0,0,-1.077329,67.337469,163.74039)"><path
       inkscape:connector-curvature="0"
       style="fill:#004768;fill-opacity:1;fill-rule:nonzero;stroke:none"
       id="path38"
       d="m 0,0 0,-30.671 30.672,10e-4 1.425,1.422 L 1.423,1.424 0,0 z" /></g><path
     inkscape:connector-curvature="0"
     style="fill:#0085c5;fill-opacity:1;fill-rule:nonzero;stroke:none"
     id="path40"
     d="m 101.91629,195.25024 -33.045996,0 0,-33.04385 33.045996,0 0,33.04385 z" /><path
     inkscape:connector-curvature="0"
     style="fill:#008dd3;fill-opacity:1;fill-rule:nonzero;stroke:none"
     id="path42"
     d="m 142.55528,183.3813 -33.0449,0 0,-33.04491 33.0449,0 0,33.04491 z" /><g
     id="g44"
     transform="matrix(1.077329,0,0,-1.077329,147.15678,142.04828)"><path
       inkscape:connector-curvature="0"
       style="fill:#004768;fill-opacity:1;fill-rule:nonzero;stroke:none"
       id="path46"
       d="m 0,0 -30.674,0 0,30.675 1.424,1.423 L 1.424,1.425 0,0 z" /></g><path
     inkscape:connector-curvature="0"
     style="fill:#00a0e4;fill-opacity:1;fill-rule:nonzero;stroke:none"
     id="path48"
     d="m 148.69067,140.51329 -33.04598,0 0,-33.04492 33.04598,0 0,33.04492 z" /><g
     id="g50"
     transform="matrix(1.077329,0,0,-1.077329,185.58553,69.530126)"><path
       inkscape:connector-curvature="0"
       style="fill:#004768;fill-opacity:1;fill-rule:nonzero;stroke:none"
       id="path52"
       d="m 0,0 -30.674,0 0,30.675 1.424,1.423 L 1.424,1.424 0,0 z" /></g><path
     inkscape:connector-curvature="0"
     style="fill:#00a0e4;fill-opacity:1;fill-rule:nonzero;stroke:none"
     id="path54"
     d="m 187.119,67.996127 -33.04491,0 0,-33.044921 33.04491,0 0,33.044921 z" /><g
     id="g56"
     transform="matrix(1.077329,0,0,-1.077329,33.597464,89.759242)"><path
       inkscape:connector-curvature="0"
       style="fill:#004768;fill-opacity:1;fill-rule:nonzero;stroke:none"
       id="path58"
       d="m 0,0 0,-30.673 30.675,0 1.423,1.426 L 1.423,1.424 0,0 z" /></g><path
     inkscape:connector-curvature="0"
     style="fill:#0085c5;fill-opacity:1;fill-rule:nonzero;stroke:none"
     id="path60"
     d="m 68.176494,121.26788 -33.04599,0 0,-33.04277 33.04599,0 0,33.04277 z" /><g
     id="g62"
     transform="matrix(1.077329,0,0,-1.077329,180.20202,188.89378)"><path
       inkscape:connector-curvature="0"
       style="fill:#004768;fill-opacity:1;fill-rule:nonzero;stroke:none"
       id="path64"
       d="m 0,0 -30.673,0 0,30.67 1.423,1.425 L 1.422,1.424 0,0 z" /></g><path
     inkscape:connector-curvature="0"
     style="fill:#0085c5;fill-opacity:1;fill-rule:nonzero;stroke:none"
     id="path66"
     d="m 181.73344,187.35987 -33.04277,0 0,-33.04277 33.04277,0 0,33.04277 z" /></svg>